<?xml version="1.0" encoding="utf-8"?>
<svg version="1.1" xmlns="http://www.w3.org/2000/svg" width="32" height="32" viewBox="0 0 1335 1335">
  <path d="M0 0 C440.55 0 881.1 0 1335 0 C1335 440.55 1335 881.1 1335 1335 C894.45 1335 453.9 1335 0 1335 C0 894.45 0 453.9 0 0 Z " fill="#20442E" transform="translate(0,0)"/>
  <g transform="matrix(1, 0, 0, 1, -17.574432, -40.557735)">
    <path d="M 684.116 261.963 C 688.194 263.848 691.14 266.58 694.366 269.651 C 695.453 270.677 696.542 271.702 697.632 272.725 C 698.196 273.256 698.761 273.786 699.342 274.333 C 701.158 276.002 703.015 277.611 704.886 279.217 C 709.993 283.662 714.766 288.43 719.554 293.213 C 720.444 294.091 721.334 294.969 722.251 295.874 C 727.55 301.161 732.444 306.613 737.097 312.477 C 739.118 314.966 741.238 317.312 743.429 319.651 C 748.936 325.713 753.761 332.248 758.581 338.859 C 759.576 340.224 760.576 341.585 761.581 342.943 C 776.149 362.654 788.263 384.017 799.116 405.963 C 799.504 406.738 799.892 407.512 800.292 408.31 C 807.79 423.427 813.09 439.456 818.589 455.377 C 818.844 456.113 819.1 456.849 819.364 457.606 C 821.116 462.728 821.116 462.728 821.116 464.963 C 829.008 462.882 835.957 459.627 843.179 455.901 C 873.277 440.538 906.223 429.254 938.863 420.571 C 941.244 419.929 943.614 419.255 945.983 418.573 C 971.47 411.261 971.47 411.261 979.116 412.963 C 984.375 416.043 985.643 419.867 987.366 425.401 C 987.651 426.287 987.936 427.173 988.23 428.086 C 991.152 437.505 993.516 447.076 995.866 456.651 C 996.056 457.422 996.247 458.193 996.443 458.988 C 999.205 470.239 1001.38 481.511 1003.12 492.963 C 1003.31 494.23 1003.5 495.496 1003.71 496.8 C 1006.01 512.857 1006.3 528.926 1006.3 545.118 C 1006.3 548.13 1006.32 551.141 1006.34 554.153 C 1006.4 572.827 1004.84 591.206 1001.93 609.651 C 1001.77 610.654 1001.77 610.654 1001.61 611.678 C 994.633 655.364 978.193 695.048 955.772 732.928 C 955.143 733.992 954.514 735.055 953.866 736.151 C 953.085 737.441 953.085 737.441 952.288 738.756 C 951.171 740.86 950.644 742.659 950.116 744.963 C 950.782 744.783 951.448 744.602 952.134 744.416 C 973.921 738.545 995.849 733.154 1018.24 730.151 C 1019.48 729.983 1019.48 729.983 1020.74 729.812 C 1060.02 725.02 1102.11 725.514 1141.12 731.963 C 1142.58 732.192 1144.04 732.419 1145.5 732.645 C 1193.29 740.05 1193.29 740.05 1203.12 744.963 C 1207.8 804.952 1157.79 881.636 1121.12 925.963 C 1120.68 926.503 1120.24 927.042 1119.79 927.598 C 1108.49 941.496 1095.73 954.32 1082.12 965.963 C 1081.16 966.809 1080.19 967.655 1079.2 968.526 C 1058.01 986.788 1034.91 1002.99 1010.12 1015.96 C 1009.47 1016.3 1008.82 1016.65 1008.16 1017 C 972.577 1035.71 935.489 1047.39 896.116 1054.96 C 894.747 1055.24 894.747 1055.24 893.349 1055.52 C 851.167 1063.69 802.471 1063.49 760.421 1054.51 C 754.401 1053.51 748.768 1053.3 743.116 1055.96 C 739.938 1059.23 737.598 1063.15 735.116 1066.96 C 734.718 1067.56 734.321 1068.16 733.911 1068.77 C 717.437 1093.57 706 1121.98 705.116 1151.96 C 699.689 1153.48 695.017 1154.2 689.335 1154.15 C 688.286 1154.15 688.286 1154.15 687.217 1154.14 C 685.016 1154.13 682.816 1154.12 680.616 1154.09 C 679.111 1154.08 677.606 1154.07 676.1 1154.07 C 672.439 1154.04 668.777 1154.01 665.116 1153.96 C 665.018 1152.65 664.92 1151.35 664.819 1150.01 C 662.83 1125.45 656.871 1103.64 645.116 1081.96 C 644.624 1081.05 644.131 1080.14 643.624 1079.2 C 634.837 1063.74 634.837 1063.74 621.737 1053.07 C 618.369 1052.93 615.481 1053.52 612.179 1054.21 C 569.288 1062.25 522.409 1062 479.488 1054.36 C 476.694 1053.89 473.892 1053.49 471.089 1053.09 C 391.491 1040.88 313.928 999.769 261.167 938.35 C 259.637 936.57 258.09 934.804 256.534 933.045 C 243.867 918.645 232.34 903.191 222.116 886.963 C 221.667 886.254 221.218 885.544 220.756 884.813 C 202.886 856.333 189.17 826.253 178.241 794.526 C 177.97 793.742 177.698 792.958 177.419 792.15 C 174.428 783.463 171.66 774.728 169.233 765.866 C 169.018 765.107 168.803 764.348 168.582 763.566 C 167.231 758.461 166.096 753.225 167.116 747.963 C 170.441 743.993 174.587 742.992 179.487 741.928 C 180.19 741.765 180.893 741.601 181.618 741.433 C 183.074 741.096 184.532 740.764 185.992 740.439 C 187.959 739.999 189.921 739.537 191.882 739.073 C 222.089 731.978 253.041 727.19 284.116 726.963 C 285.267 726.95 286.419 726.936 287.605 726.922 C 328.807 726.471 368.088 730.975 408.061 741.084 C 409.044 741.329 410.026 741.574 411.038 741.827 C 411.9 742.046 412.762 742.266 413.65 742.492 C 416.197 742.979 418.529 743.048 421.116 742.963 C 420.8 742.472 420.483 741.98 420.157 741.473 C 374.835 670.846 355.032 586.6 366.116 502.963 C 366.234 501.977 366.353 500.991 366.474 499.974 C 369.417 475.634 374.723 451.456 382.366 428.151 C 382.683 427.179 383 426.208 383.326 425.207 C 386.634 415.608 386.634 415.608 390.116 412.963 C 398.259 411.545 406.536 413.841 414.429 415.713 C 415.625 415.989 416.821 416.265 418.054 416.549 C 426.159 418.441 434.17 420.478 442.116 422.963 C 443.437 423.361 444.759 423.758 446.081 424.155 C 481.602 434.955 516.997 448.172 549.116 466.963 C 550.856 461.788 552.553 456.603 554.21 451.401 C 569.158 404.918 592.495 363.265 623.694 325.69 C 624.937 324.181 626.155 322.652 627.37 321.12 C 631.764 315.583 636.438 310.387 641.284 305.245 C 641.98 304.506 642.675 303.768 643.392 303.007 C 651.47 294.475 659.785 286.184 668.116 277.901 C 669.681 276.341 671.246 274.78 672.811 273.219 C 676.577 269.465 680.345 265.713 684.116 261.963 Z" fill="#F7F4EE"/>
    <path d="M 954.116 455.963 C 972.672 475.996 969.34 527.703 969.366 553.963 C 969.367 554.767 969.369 555.57 969.37 556.398 C 969.365 570.119 968.361 583.414 966.116 596.963 C 965.872 598.56 965.63 600.156 965.389 601.752 C 964.82 605.447 964.188 609.126 963.512 612.802 C 963.247 614.247 962.99 615.693 962.74 617.14 C 952.009 678.587 914.134 735.004 867.167 775.194 C 864.84 777.201 862.574 779.268 860.304 781.338 C 855.99 785.231 851.549 788.926 847.034 792.581 C 843.862 795.171 840.736 797.81 837.616 800.463 C 833.67 803.818 829.7 807.136 825.679 810.401 C 804.57 827.635 782.843 846.069 765.999 867.588 C 764.23 869.82 762.371 871.883 760.429 873.963 C 743.86 892.475 731.317 914.268 719.669 936.068 C 716.93 941.174 714.145 946.255 711.366 951.338 C 710.35 953.2 709.335 955.062 708.319 956.924 C 707.585 958.271 706.85 959.617 706.116 960.963 C 705.786 960.963 705.456 960.963 705.116 960.963 C 702.41 945.401 703.075 929.772 703.442 914.055 C 703.524 910.428 703.593 906.8 703.663 903.172 C 703.801 896.102 703.954 889.033 704.116 881.963 C 699.311 881.939 694.505 881.921 689.699 881.908 C 688.064 881.903 686.429 881.897 684.793 881.888 C 682.445 881.876 680.097 881.87 677.749 881.866 C 677.015 881.861 676.282 881.855 675.526 881.85 C 671.695 881.78 671.695 881.78 668.116 882.963 C 668.106 883.559 668.095 884.155 668.085 884.769 C 667.974 891.115 667.86 897.461 667.744 903.807 C 667.701 906.158 667.659 908.509 667.619 910.861 C 667.335 927.24 666.846 943.598 666.116 959.963 C 662.877 957.015 660.971 954.171 659.014 950.264 C 658.447 949.146 657.88 948.028 657.296 946.877 C 657.002 946.289 656.708 945.702 656.405 945.096 C 654.856 942.01 653.275 938.94 651.694 935.87 C 651.382 935.264 651.071 934.658 650.75 934.033 C 639.785 912.781 626.439 892.326 611.116 873.963 C 610.675 873.427 610.234 872.892 609.779 872.339 C 598.6 858.765 586.771 845.423 573.401 833.967 C 571.051 831.907 568.766 829.789 566.482 827.655 C 560.23 821.818 553.797 816.31 547.116 810.963 C 545.385 809.549 543.656 808.132 541.929 806.713 C 538.76 804.117 535.584 801.532 532.393 798.963 C 513.789 783.967 496.211 768.1 479.241 751.276 C 478.373 750.421 477.506 749.567 476.612 748.686 C 470.68 742.762 465.312 736.539 460.116 729.963 C 459.628 729.355 459.14 728.746 458.637 728.119 C 440.623 705.574 427.706 680.758 417.116 653.963 C 416.633 652.751 416.633 652.751 416.139 651.515 C 411.785 640.449 409.054 629.123 406.643 617.492 C 406.185 615.296 405.703 613.108 405.21 610.92 C 398.287 578.07 399.746 542.744 403.429 509.588 C 403.535 508.628 403.642 507.667 403.752 506.677 C 405.108 494.686 406.864 482.818 409.116 470.963 C 409.289 470.02 409.462 469.077 409.641 468.106 C 411.294 459.785 411.294 459.785 414.116 456.963 C 425.579 454.723 438.464 460.879 449.179 464.463 C 449.976 464.729 450.774 464.995 451.595 465.269 C 465.382 469.885 478.845 475.01 492.116 480.963 C 492.927 481.319 493.737 481.675 494.573 482.042 C 522.788 494.476 549.105 511.705 573.116 530.963 C 573.966 531.637 573.966 531.637 574.832 532.325 C 583.389 539.166 591.167 546.812 598.929 554.526 C 599.417 555.009 599.905 555.492 600.409 555.99 C 609.86 565.362 618.179 575.4 625.929 586.213 C 626.474 586.964 627.02 587.714 627.583 588.487 C 635.849 599.962 635.849 599.962 636.491 604.776 C 636.116 606.963 636.116 606.963 634.116 608.963 C 631.691 609.879 629.285 610.712 626.819 611.502 C 626.082 611.744 625.345 611.986 624.586 612.235 C 623.004 612.754 621.42 613.271 619.836 613.785 C 615.703 615.129 611.578 616.496 607.452 617.862 C 606.638 618.131 605.824 618.4 604.986 618.677 C 557.989 633.287 557.989 633.287 524.116 666.963 C 515.814 686.732 515.637 708.177 523.366 728.276 C 530.478 744.091 542.776 755.461 558.733 762.124 C 572.755 767.066 588.379 769.033 602.932 765.401 C 605.484 764.89 607.524 764.627 610.116 764.963 C 613.387 767.973 613.849 771.546 614.741 775.776 C 617.814 788.605 625.646 799.077 634.116 808.963 C 635.044 810.086 635.971 811.21 636.897 812.335 C 645.249 822.388 654.331 830.937 664.636 839.014 C 666.357 840.367 668.062 841.741 669.753 843.131 C 677.224 849.486 677.224 849.486 686.401 852.335 C 690.984 851.877 693.146 850.066 696.366 847.026 C 697.503 846.007 698.641 844.988 699.78 843.971 C 700.341 843.461 700.902 842.951 701.48 842.425 C 703.829 840.326 706.281 838.367 708.741 836.401 C 713.501 832.528 718.046 828.459 722.557 824.299 C 724.747 822.3 726.975 820.375 729.241 818.463 C 744.81 804.797 754.006 788.357 758.538 768.229 C 759.116 765.963 759.116 765.963 760.116 764.963 C 762.042 765.049 762.042 765.049 764.429 765.338 C 765.208 765.429 765.988 765.519 766.792 765.612 C 769.116 765.963 769.116 765.963 770.972 766.475 C 774.999 767.392 779.128 767.148 783.241 767.151 C 784.141 767.163 785.041 767.175 785.968 767.188 C 804.298 767.228 821.317 760.079 834.663 747.573 C 842.218 739.536 847.565 730.407 851.116 719.963 C 851.434 719.079 851.753 718.195 852.081 717.284 C 857.854 698.5 854.035 679.216 845.093 662.225 C 827.743 633.596 785.56 625.177 755.877 615.045 C 748.115 612.373 740.565 609.417 733.116 605.963 C 733.616 601.208 735.848 598.022 738.616 594.276 C 739.063 593.661 739.51 593.046 739.971 592.412 C 744.011 586.938 748.473 581.932 753.116 576.963 C 754.184 575.739 755.247 574.51 756.304 573.276 C 768.349 559.478 780.929 545.59 795.315 534.202 C 797.864 532.165 800.334 530.067 802.799 527.932 C 814.389 517.929 826.816 509.518 840.116 501.963 C 841.356 501.254 841.356 501.254 842.621 500.531 C 929.68 451.076 929.68 451.076 954.116 455.963 Z" fill="#20442E"/>
    <path d="M 1158.12 773.963 C 1156.85 781.811 1154.53 789.031 1151.75 796.463 C 1151.31 797.633 1150.87 798.802 1150.42 800.006 C 1135.22 839.922 1113.18 878.226 1084.14 909.756 C 1082.38 911.685 1080.68 913.652 1079 915.651 C 1070.65 925.198 1061.54 934.155 1051.58 941.999 C 1049.25 943.861 1047.06 945.813 1044.87 947.838 C 1027.47 963.418 1006.73 975.252 986.116 985.963 C 985.341 986.368 984.566 986.773 983.767 987.189 C 973.423 992.521 962.712 996.762 951.804 1000.78 C 950.864 1001.12 950.864 1001.12 949.906 1001.48 C 941.078 1004.72 932.183 1007.48 923.116 1009.96 C 921.556 1010.41 919.996 1010.86 918.436 1011.31 C 885.744 1020.45 852.699 1021.13 818.991 1021.21 C 817.702 1021.22 816.413 1021.22 815.084 1021.23 C 811.384 1021.24 807.684 1021.24 803.983 1021.23 C 802.299 1021.24 802.299 1021.24 800.581 1021.24 C 799.539 1021.24 798.498 1021.23 797.424 1021.22 C 796.062 1021.22 796.062 1021.22 794.673 1021.22 C 791.853 1020.94 789.686 1020.13 787.116 1018.96 C 787.313 1014.9 787.852 1013.25 790.643 1010.21 C 791.765 1009.26 792.903 1008.32 794.054 1007.4 C 794.68 1006.88 795.307 1006.37 795.953 1005.84 C 812.47 992.409 830.471 980.832 848.116 968.963 C 848.859 968.462 849.602 967.961 850.368 967.445 C 868.892 954.964 887.672 942.853 906.385 930.659 C 917.085 923.684 927.766 916.681 938.447 909.678 C 942.959 906.721 947.473 903.766 951.987 900.811 C 953.927 899.541 955.867 898.271 957.807 897.001 C 959.03 896.201 960.253 895.4 961.476 894.6 C 969.383 889.428 977.26 884.213 985.116 878.963 C 987.737 877.215 990.358 875.468 992.979 873.721 C 994.376 872.79 995.772 871.859 997.169 870.928 C 1005.65 865.272 1005.65 865.272 1007.76 863.869 C 1009.15 862.939 1010.55 862.009 1011.94 861.078 C 1015.34 858.814 1018.74 856.551 1022.14 854.291 C 1029.31 849.519 1036.46 844.717 1043.56 839.838 C 1044.4 839.263 1045.24 838.689 1046.1 838.096 C 1048.11 836.719 1050.11 835.342 1052.12 833.963 C 1042.72 836.507 1033.69 840.029 1024.62 843.526 C 1023.78 843.85 1022.94 844.175 1022.07 844.509 C 989.115 857.225 956.861 871.5 925.116 886.963 C 924.464 887.281 923.811 887.598 923.139 887.926 C 907.887 895.361 892.83 903.111 878.002 911.362 C 874.861 913.105 871.712 914.829 868.561 916.553 C 836.332 934.236 805.643 954.068 776.116 975.963 C 775.565 976.369 775.015 976.775 774.448 977.193 C 770.978 979.751 767.539 982.344 764.116 984.963 C 763.581 985.372 763.046 985.781 762.494 986.203 C 750.666 995.274 738.818 1004.65 728.632 1015.57 C 727.116 1016.96 727.116 1016.96 724.116 1017.96 C 724.688 1013.81 725.634 1010.28 727.268 1006.43 C 727.71 1005.38 728.151 1004.34 728.606 1003.26 C 729.084 1002.15 729.561 1001.04 730.054 999.901 C 730.549 998.744 731.045 997.588 731.556 996.396 C 748.186 957.883 769.295 922.49 796.669 890.649 C 798.172 888.899 799.668 887.142 801.163 885.385 C 825.135 857.245 825.135 857.245 833.288 853.077 C 835.579 851.681 837.35 849.992 839.304 848.151 C 857.894 831.025 879.888 817.782 902.116 805.963 C 903.067 805.454 903.067 805.454 904.036 804.935 C 940.175 785.725 979.719 773.904 1020.12 767.963 C 1021.6 767.737 1021.6 767.737 1023.11 767.506 C 1064.2 761.428 1118.75 759.493 1158.12 773.963 Z" fill="#20442E"/>
    <path d="M 374.116 771.963 C 375.296 772.249 376.477 772.534 377.693 772.828 C 435.039 786.826 491.987 809.905 535.745 850.768 C 537.7 852.578 539.688 854.315 541.71 856.049 C 546.542 860.266 551.091 864.753 555.625 869.287 C 557.043 870.703 558.469 872.11 559.895 873.518 C 565.306 878.917 570.335 884.46 575.091 890.446 C 577.213 893.085 579.432 895.617 581.679 898.151 C 598.724 918.552 611.624 942.611 624.116 965.963 C 624.631 966.924 625.147 967.885 625.678 968.875 C 631.14 979.089 636.441 989.356 641.241 999.901 C 641.607 1000.7 641.974 1001.5 642.351 1002.32 C 644.499 1007.14 645.978 1011.81 647.116 1016.96 C 642.603 1015.52 639.908 1013.21 636.491 1009.96 C 635.423 1008.96 634.356 1007.96 633.288 1006.96 C 632.23 1005.96 631.173 1004.96 630.116 1003.96 C 622.71 997.023 615.054 990.631 607.02 984.448 C 605.12 982.966 603.249 981.452 601.382 979.928 C 547.999 936.77 483.916 903.68 421.565 875.526 C 418.609 874.187 415.66 872.834 412.715 871.472 C 385.662 858.973 358.075 847.76 330.304 836.963 C 329.637 836.703 328.97 836.444 328.283 836.176 C 326.431 835.455 324.576 834.74 322.721 834.026 C 321.681 833.625 320.641 833.224 319.57 832.811 C 317.234 831.855 317.234 831.855 315.116 831.963 C 315.759 832.39 316.402 832.818 317.065 833.258 C 338.547 847.528 338.547 847.528 346.741 853.213 C 369.333 868.851 392.407 883.811 415.403 898.844 C 416.988 899.88 418.572 900.916 420.157 901.953 C 433.444 910.641 446.827 919.173 460.3 927.573 C 499.392 952.014 538.677 977.241 575.057 1005.6 C 577.216 1007.27 579.381 1008.9 581.581 1010.51 C 582.142 1010.92 582.704 1011.34 583.283 1011.76 C 584.834 1012.89 586.391 1014.02 587.948 1015.15 C 588.663 1015.75 589.379 1016.35 590.116 1016.96 C 590.116 1017.62 590.116 1018.28 590.116 1018.96 C 582.095 1020.52 574.436 1021.25 566.272 1021.19 C 564.638 1021.19 564.638 1021.19 562.97 1021.19 C 560.677 1021.19 558.385 1021.18 556.093 1021.17 C 552.652 1021.15 549.212 1021.15 545.772 1021.15 C 528.21 1021.12 510.692 1020.77 493.241 1018.65 C 492.145 1018.52 491.049 1018.39 489.92 1018.25 C 458.747 1014.35 429.842 1005.63 401.116 992.963 C 400.174 992.55 399.233 992.136 398.262 991.71 C 371.922 979.998 347.327 964.314 325.116 945.963 C 324.53 945.48 323.944 944.997 323.34 944.499 C 315.159 937.715 307.521 930.585 300.116 922.963 C 297.609 920.44 295.088 917.936 292.538 915.456 C 286.252 909.299 280.494 902.941 275.116 895.963 C 274.564 895.25 274.012 894.537 273.443 893.802 C 251.432 865.237 214.51 816.748 215.054 779.276 C 215.063 778.468 215.072 777.659 215.081 776.827 C 215.092 776.212 215.104 775.597 215.116 774.963 C 255.135 752.25 331.014 761.542 374.116 771.963 Z" fill="#20442E"/>
    <path d="M 688.116 316.963 C 690.573 318.581 690.573 318.581 692.929 320.838 C 693.79 321.662 694.651 322.486 695.538 323.335 C 698.765 326.625 701.879 329.989 704.917 333.456 C 706.328 335.065 707.762 336.656 709.221 338.221 C 723.014 353.044 734.201 369.975 745.116 386.963 C 745.597 387.71 746.077 388.457 746.573 389.227 C 760.512 411.168 770.79 435.422 779.116 459.963 C 779.511 461.126 779.906 462.29 780.313 463.488 C 781.473 466.933 782.613 470.383 783.741 473.838 C 784.084 474.885 784.428 475.931 784.782 477.009 C 785.245 478.468 785.245 478.468 785.718 479.956 C 786.125 481.23 786.125 481.23 786.54 482.529 C 787.162 485.159 787.4 487.273 787.116 489.963 C 785.143 492.141 783.275 493.953 781.054 495.838 C 779.849 496.901 778.646 497.965 777.444 499.03 C 776.865 499.537 776.285 500.043 775.688 500.565 C 773.816 502.231 772.049 503.978 770.304 505.776 C 768.12 508.01 765.858 510.075 763.479 512.1 C 758.8 516.171 754.462 520.543 750.116 524.963 C 745.175 529.989 740.21 534.883 734.843 539.456 C 733.193 540.896 731.645 542.397 730.116 543.963 C 725.191 541.821 722.166 538.305 719.116 533.963 C 717.837 530.445 717.611 528.468 718.804 524.913 C 721.794 518.722 726.545 514.273 731.495 509.639 C 735.392 505.661 738.501 501.967 738.929 496.276 C 738.997 495.53 739.065 494.783 739.136 494.014 C 739.219 491.761 739.219 491.761 738.116 488.963 C 733.789 487.917 730.81 487.254 726.643 488.999 C 718.16 494.471 711.407 503.077 707.038 512.139 C 702.864 520.352 702.864 520.352 699.116 522.963 C 690.828 525.312 681.503 524.208 673.331 521.889 C 669.017 519.305 666.723 516.096 663.866 512.026 C 662.74 510.49 661.61 508.958 660.475 507.428 C 659.915 506.673 659.355 505.917 658.778 505.139 C 656.369 501.985 653.795 499.014 651.116 496.088 C 650.27 495.163 649.425 494.237 648.554 493.284 C 646.185 491.029 644.034 489.427 641.116 487.963 C 636.712 488.074 634.339 490.109 631.116 492.963 C 631.593 502.272 638.9 508.976 644.858 515.479 C 647.016 517.854 649.131 520.243 651.179 522.713 C 652.031 523.727 652.031 523.727 652.901 524.76 C 654.573 527.792 654.624 529.538 654.116 532.963 C 652.683 535.3 651.335 537.247 649.616 539.338 C 649.187 539.884 648.757 540.429 648.315 540.991 C 647.262 542.325 646.191 543.646 645.116 544.963 C 641.864 543.546 639.802 541.838 637.366 539.276 C 634.826 536.666 632.274 534.186 629.491 531.838 C 624.874 527.878 620.643 523.545 616.391 519.201 C 613.421 516.187 610.402 513.303 607.194 510.542 C 602.867 506.807 598.868 502.791 594.866 498.713 C 593.488 497.31 592.108 495.909 590.725 494.51 C 589.828 493.595 589.828 493.595 588.912 492.662 C 587.078 490.928 585.162 489.438 583.116 487.963 C 583.873 483.485 585.256 479.262 586.706 474.971 C 587.096 473.81 587.096 473.81 587.494 472.625 C 588.341 470.111 589.196 467.599 590.054 465.088 C 590.346 464.232 590.639 463.375 590.94 462.492 C 595.68 448.665 600.836 435.175 607.116 421.963 C 607.696 420.719 607.696 420.719 608.288 419.449 C 622.507 389.097 641.911 362.005 663.667 336.659 C 665.221 334.84 666.761 333.01 668.3 331.178 C 669.363 329.919 670.427 328.66 671.491 327.401 C 671.979 326.817 672.467 326.233 672.969 325.631 C 681.288 315.839 681.288 315.839 688.116 316.963 Z" fill="#20442E"/>
    <path d="M 715.116 636.963 C 723.456 638.551 731.326 641.308 739.304 644.151 C 740.029 644.408 740.755 644.665 741.502 644.931 C 753.893 649.333 766.183 653.986 778.429 658.776 C 779.222 659.084 780.016 659.392 780.834 659.709 C 810.998 671.433 810.998 671.433 817.991 683.088 C 821.432 691.882 821.789 704.082 818.214 712.913 C 813.339 722.021 805.61 729.201 795.663 732.483 C 785.512 734.398 776.155 733.969 766.925 729.155 C 758.943 722.927 754.272 715.25 749.866 706.276 C 748.739 704.044 747.61 701.814 746.479 699.585 C 745.918 698.472 745.357 697.359 744.779 696.213 C 742.3 691.368 739.684 686.602 737.054 681.838 C 732.829 674.15 728.685 666.423 724.616 658.651 C 724.123 657.714 723.631 656.778 723.124 655.813 C 715.116 640.45 715.116 640.45 715.116 636.963 Z" fill="#21442F"/>
    <path d="M 657.116 636.963 C 618.003 721.916 618.003 721.916 599.116 730.963 C 598.372 731.327 597.628 731.69 596.862 732.065 C 589.875 734.351 579.906 734.167 573.116 731.401 C 562.802 725.84 556.16 717.157 552.522 706.17 C 551.174 698.845 550.378 688.227 554.64 681.833 C 560.424 674.506 567.82 670.103 576.179 666.276 C 577.248 665.775 578.317 665.275 579.419 664.759 C 640.717 636.495 640.717 636.495 657.116 636.963 Z" fill="#21452F"/>
    <path d="M 646.116 758.963 C 655.956 758.894 665.796 758.841 675.636 758.808 C 680.205 758.792 684.774 758.771 689.344 758.737 C 693.753 758.705 698.161 758.687 702.571 758.679 C 704.253 758.673 705.936 758.662 707.618 758.646 C 709.974 758.624 712.329 758.621 714.685 758.623 C 715.73 758.607 715.73 758.607 716.795 758.59 C 719.853 758.61 721.865 758.821 724.547 760.345 C 726.64 762.504 726.653 763.738 726.616 766.713 C 726.153 776.432 719.489 782.242 713.116 788.963 C 712.537 789.583 711.958 790.203 711.362 790.842 C 706.362 796.036 700.743 800.473 695.116 804.963 C 694.256 805.699 693.396 806.436 692.511 807.194 C 689.764 809.224 687.758 809.666 684.346 809.467 C 671.58 806.583 659.441 792.774 652.358 782.385 C 648.517 776.188 646.017 771.166 646.077 763.776 C 646.083 762.875 646.088 761.974 646.094 761.045 C 646.105 760.015 646.105 760.015 646.116 758.963 Z" fill="#B9861A"/>
    <path d="M 686.116 658.963 C 689.273 662.663 691.638 666.513 693.839 670.827 C 694.181 671.488 694.523 672.149 694.876 672.83 C 695.984 674.975 697.082 677.125 698.179 679.276 C 698.553 680.007 698.928 680.738 699.314 681.492 C 704.282 691.191 709.117 700.94 713.679 710.838 C 714.366 712.324 714.366 712.324 715.067 713.84 C 718.116 720.578 718.116 720.578 718.116 723.963 C 708.364 726.145 698.823 726.24 688.89 726.169 C 686.253 726.151 683.616 726.149 680.979 726.149 C 671.313 726.128 661.749 725.831 652.116 724.963 C 652.829 720.146 654.062 716.621 656.304 712.276 C 656.646 711.609 656.988 710.943 657.341 710.256 C 658.133 708.718 658.929 707.181 659.728 705.646 C 661.305 702.597 662.857 699.537 664.409 696.475 C 680.823 664.257 680.823 664.257 686.116 658.963 Z" fill="#B8861C"/>
    <path d="M 761.116 511.963 C 759.629 515.43 757.659 517.654 754.983 520.292 C 753.775 521.49 753.775 521.49 752.542 522.713 C 751.7 523.538 750.858 524.363 749.991 525.213 C 749.142 526.054 748.292 526.894 747.417 527.76 C 745.321 529.833 743.221 531.9 741.116 533.963 C 741.116 527.325 749.428 521.543 753.929 516.963 C 754.408 516.47 754.888 515.977 755.383 515.469 C 758.881 511.963 758.881 511.963 761.116 511.963 Z" fill="#8B7322"/>
    <path d="M 539.538 1058.87 C 540.563 1058.87 541.587 1058.87 542.643 1058.88 C 543.707 1058.88 544.77 1058.89 545.866 1058.9 C 546.945 1058.9 548.024 1058.91 549.136 1058.91 C 551.796 1058.93 554.456 1058.94 557.116 1058.96 C 557.116 1059.29 557.116 1059.62 557.116 1059.96 C 555.065 1060.19 553.014 1060.42 550.964 1060.65 C 549.105 1060.78 549.105 1060.78 548.116 1061.96 C 545.253 1062.04 542.415 1062.06 539.554 1062.03 C 538.747 1062.02 537.941 1062.02 537.11 1062.01 C 535.112 1062 533.114 1061.98 531.116 1061.96 C 530.786 1061.3 530.456 1060.64 530.116 1059.96 C 533.324 1059.01 536.198 1058.85 539.538 1058.87 Z" fill="#6A6A34"/>
    <path d="M 797.116 832.963 C 795.53 836.819 793.051 839.296 790.116 842.213 C 789.229 843.105 788.342 843.997 787.429 844.917 C 785.116 846.963 785.116 846.963 783.116 846.963 C 784.702 843.107 787.181 840.631 790.116 837.713 C 791.003 836.821 791.89 835.929 792.804 835.01 C 795.116 832.963 795.116 832.963 797.116 832.963 Z" fill="#7D6E27"/>
    <path d="M 747.116 523.963 C 748.106 524.293 749.096 524.623 750.116 524.963 C 747.146 527.933 744.176 530.903 741.116 533.963 C 741.116 530.374 741.78 529.855 744.116 527.276 C 744.673 526.653 745.23 526.031 745.804 525.389 C 746.237 524.919 746.67 524.448 747.116 523.963 Z" fill="#A18331"/>
  </g>
</svg>